<?xml version="1.0" encoding="UTF-8"?>
<!DOCTYPE svg PUBLIC "-//W3C//DTD SVG 1.1//EN" "http://www.w3.org/Graphics/SVG/1.1/DTD/svg11.dtd">
<!-- Creator: CorelDRAW 2019 (64-Bit) -->
<svg xmlns="http://www.w3.org/2000/svg" xml:space="preserve" width="176.907mm" height="43.4859mm" version="1.1" style="shape-rendering:geometricPrecision; text-rendering:geometricPrecision; image-rendering:optimizeQuality; fill-rule:evenodd; clip-rule:evenodd"
viewBox="0 0 176.6225 43.4159"
 xmlns:xlink="http://www.w3.org/1999/xlink"
 xmlns:xodm="http://www.corel.com/coreldraw/odm/2003">
 <defs>
  <style type="text/css">
   <![CDATA[
    .fil0 {fill:#CD1A00}
    .fil1 {fill:white}
   ]]>
  </style>
 </defs>
 <g id="Layer_x0020_1">
  <metadata id="CorelCorpID_0Corel-Layer"/>
  <g id="_668202448">
   <polygon class="fil0" points="-0,43.4159 176.6225,43.4159 176.6225,0 -0,0 "/>
   <path class="fil1" d="M152.3914 19.7525l0 2.9315 4.6495 0 0 -2.9315c0,-1.2546 -1.0507,-2.3022 -2.305,-2.3022 -1.2992,0 -2.3445,1.0476 -2.3445,2.3022zm12.3513 -4.1448l0 0c4.062,2.0496 6.2793,6.1971 5.7358,10.6775l-18.0871 0 0 2.093c0,1.2991 0.7117,2.4274 1.8863,2.9731 0.2893,0.124 0.5018,0.2095 0.7554,0.2949 2.9699,0.9183 6.1086,-0.7554 7.0321,-3.6871l8.2065 0c-1.0037,2.8048 -2.8922,4.8152 -5.6142,6.0308 -6.2377,2.8466 -12.5582,3.0144 -18.9641,0.5854 -2.8075,-1.0482 -4.7737,-2.9729 -5.9482,-5.7358 -2.2999,-5.3582 0.2125,-11.5578 5.5706,-13.819 6.4913,-2.7631 13.104,-2.5533 19.4271,0.5873zm-64.1061 4.1448l0 0c0,-1.2546 -1.0037,-2.3022 -2.2999,-2.3022 -1.2572,0 -2.3029,1.0476 -2.3029,2.3022l0 2.9315 4.6028 0 0 -2.9315zm13.4436 6.5327l0 0 -18.0464 0 0 2.093c0,1.2991 0.7089,2.4274 1.8835,2.9731 0.2485,0.124 0.5021,0.2095 0.7504,0.2949 2.9749,0.9183 6.1164,-0.7554 6.9934,-3.6871l8.2093 0c-1.0036,2.8048 -2.8901,4.8152 -5.5676,6.0308 -6.2407,2.8466 -12.6048,3.0144 -18.9697,0.5854 -2.8075,-1.0482 -4.8173,-2.9729 -5.9891,-5.7358 -2.2563,-5.3582 0.209,-11.5578 5.5725,-13.819 6.4893,-2.7631 13.1456,-2.5533 19.428,0.5873 4.0592,2.0496 6.2788,6.1971 5.7358,10.6775zm4.6845 4.3543l0 0 -3.2622 0 0 4.6058 22.0667 0 0 -4.6058 -3.306 0 0 -23.4063 -18.7607 0 0 4.6077 3.2622 0 0 18.7986zm-50.2848 -17.0006l0 0 6.7454 -3.5158 -2.1378 -4.0618 -6.7423 3.4745 2.1347 4.1032zm9.423 17.0006l0 0 0 -16.4541 -18.1315 0 0 4.605 3.3066 0 0 11.8491 -3.3066 0 0 4.6058 21.4376 0 0 -4.6058 -3.3062 0zm-45.5174 -12.4775l0 0 7.9169 -10.9288 16.4989 0 0 4.6077 -3.3096 0 0 18.7986 3.3096 0 0 4.6058 -21.4404 0 0 -4.6058 3.3089 0 0 -12.1853 -12.1855 16.7911 -12.2277 -16.7911 0 12.1853 3.3095 0 0 4.6058 -11.8493 0 0 -4.6058 3.2649 0 0 -18.7986 -3.2649 0 0 -4.6077 18.7155 0 7.9533 10.9288z"/>
  </g>
 </g>
</svg>
