<?xml version="1.0" encoding="UTF-8" standalone="no"?>
<!-- Created with Inkscape (http://www.inkscape.org/) -->

<svg
   xmlns:dc="http://purl.org/dc/elements/1.1/"
   xmlns:cc="http://creativecommons.org/ns#"
   xmlns:rdf="http://www.w3.org/1999/02/22-rdf-syntax-ns#"
   xmlns:svg="http://www.w3.org/2000/svg"
   xmlns="http://www.w3.org/2000/svg"
   xmlns:sodipodi="http://sodipodi.sourceforge.net/DTD/sodipodi-0.dtd"
   xmlns:inkscape="http://www.inkscape.org/namespaces/inkscape"
   width="168.00002"
   height="37.868992"
   viewBox="0 0 44.450004 10.019504"
   version="1.1"
   id="svg931"
   inkscape:version="0.92.0 r15299"
   sodipodi:docname="amana.svg">
  <defs
     id="defs925" />
  <sodipodi:namedview
     id="base"
     pagecolor="#ffffff"
     bordercolor="#666666"
     borderopacity="1.0"
     inkscape:pageopacity="0.0"
     inkscape:pageshadow="2"
     inkscape:zoom="5.3712571"
     inkscape:cx="83.500006"
     inkscape:cy="18.434494"
     inkscape:document-units="mm"
     inkscape:current-layer="layer1"
     showgrid="false"
     fit-margin-top="0"
     fit-margin-left="0"
     fit-margin-right="0"
     fit-margin-bottom="0"
     units="px"
     inkscape:window-width="1280"
     inkscape:window-height="744"
     inkscape:window-x="-4"
     inkscape:window-y="-4"
     inkscape:window-maximized="1" />
  <metadata
     id="metadata928">
    <rdf:RDF>
      <cc:Work
         rdf:about="">
        <dc:format>image/svg+xml</dc:format>
        <dc:type
           rdf:resource="http://purl.org/dc/dcmitype/StillImage" />
        <dc:title></dc:title>
      </cc:Work>
    </rdf:RDF>
  </metadata>
  <g
     inkscape:label="Layer 1"
     inkscape:groupmode="layer"
     id="layer1"
     transform="translate(-83.74062,-143.69129)">
    <g
       transform="translate(-206.50533,-80.980007)"
       id="g911">
      <path
         inkscape:connector-curvature="0"
         d="m 303.51288,228.80984 -2.09705,-3.70245 h -1.38062 v 5.12586 h 1.06501 v -3.30023 l 1.97361,3.30023 h 0.9542 l 1.89225,-3.35669 v 3.35669 h 1.04888 v -5.12586 h -1.36519 z m 20.16293,0.0344 -3.5152,-3.73682 h -1.50546 v 5.12586 h 1.15549 v -3.66319 l 3.44541,3.66319 h 1.57489 v -5.12586 h -1.15513 z m -30.12323,-3.80976 -3.17434,5.1988 h 1.35221 l 0.45974,-0.87074 h 3.84659 l 0.51514,0.87214 h 1.40272 l -3.21782,-5.2002 z m -0.71048,3.2364 1.24561,-2.05532 1.28418,2.05532 z m 38.50198,-3.2364 h -1.18389 l -3.17468,5.1988 h 1.35256 l 0.46009,-0.87074 h 3.84588 l 0.5169,0.87074 h 1.40272 z m -1.89366,3.2364 1.24666,-2.05532 1.28383,2.05532 z m -17.2281,-3.2364 -3.17434,5.1988 h 1.35397 l 0.45798,-0.87074 h 3.84413 l 0.51515,0.87214 h 1.40271 l -3.21747,-5.2002 z m -0.71083,3.2364 1.24526,-2.05532 1.28278,2.05532 z m 22.24981,-3.46715 a 0.74939867,0.74939867 0 0 0 -0.74729,0.7494 v 0.004 a 0.74554122,0.74554122 0 1 0 1.49073,-0.004 v -0.004 a 0.74554122,0.74554122 0 0 0 -0.74344,-0.74554 z m -0.004,1.33258 a 0.57090362,0.57090362 0 0 1 -0.57441,-0.58003 v -0.004 a 0.57651447,0.57651447 0 1 1 1.15267,-0.004 v 0.004 a 0.57476108,0.57476108 0 0 1 -0.57826,0.58388 z"
         id="path875"
         style="fill:#f42434;stroke-width:0.03506779" />
      <path
         inkscape:connector-curvature="0"
         d="m 334.10462,225.42054 v -0.004 a 0.2237325,0.2237325 0 0 0 -0.0621,-0.16587 c -0.0509,-0.0505 -0.12975,-0.0807 -0.24548,-0.0807 h -0.337 v 0.7245 h 0.20129 v -0.22023 h 0.0884 l 0.14694,0.22023 h 0.23144 l -0.17323,-0.25214 a 0.22723928,0.22723928 0 0 0 0.14974,-0.22233 z m -0.20129,0.0133 c 0,0.0526 -0.0396,0.0845 -0.10906,0.0845 h -0.13186 V 225.343 h 0.12975 c 0.0677,0 0.11082,0.0284 0.11082,0.0866 z"
         id="path877"
         style="fill:#f42434;stroke-width:0.03506779" />
      <path
         inkscape:connector-curvature="0"
         d="m 312.75359,234.17206 0.17534,-0.15009 c 0.13186,0.19919 0.26687,0.30649 0.49095,0.30649 0.24197,0 0.42082,-0.17534 0.42082,-0.51514 v -1.43778 h 0.24547 v 1.43427 c 0,0.25144 -0.0733,0.4415 -0.19603,0.56424 a 0.65822242,0.65822242 0 0 1 -0.47447,0.1785 c -0.32192,0 -0.52706,-0.15991 -0.66208,-0.38049 z m 2.17631,-0.54881 v -1.24736 h 0.24127 v 1.23228 c 0,0.46254 0.24547,0.7231 0.65612,0.7231 0.39521,0 0.64665,-0.23881 0.64665,-0.70802 v -1.24736 h 0.24196 v 1.22737 c 0,0.62526 -0.35839,0.94999 -0.89493,0.94999 -0.52952,0.002 -0.89107,-0.32298 -0.89107,-0.93 z m 2.52558,0.58563 0.15009,-0.17779 c 0.22374,0.20234 0.43835,0.30333 0.73643,0.30333 0.28825,0 0.47832,-0.15324 0.47832,-0.3647 v -0.006 c 0,-0.19954 -0.10731,-0.31281 -0.55793,-0.40784 -0.4934,-0.10731 -0.72029,-0.26652 -0.72029,-0.6193 v -0.006 c 0,-0.337 0.29738,-0.58528 0.70521,-0.58528 a 1.1200652,1.1200652 0 0 1 0.75396,0.26336 l -0.14027,0.18691 c -0.19918,-0.16236 -0.39872,-0.23285 -0.6193,-0.23285 -0.28054,0 -0.45588,0.15325 -0.45588,0.34647 v 0.006 c 0,0.20234 0.11011,0.31561 0.58213,0.41696 0.47832,0.1052 0.6989,0.28054 0.6989,0.60702 v 0.006 c 0,0.36786 -0.30649,0.60702 -0.73257,0.60702 -0.34261,3.6e-4 -0.6214,-0.11361 -0.8788,-0.34331 z m 2.93027,-1.60926 h -0.72029 v -0.22373 h 1.68605 v 0.22373 h -0.72029 v 1.92172 h -0.24547 z m 2.92114,-0.22373 h 0.92264 c 0.26336,0 0.47482,0.0796 0.60983,0.21461 a 0.59229497,0.59229497 0 0 1 0.16552,0.42292 v 0.006 c 0,0.35559 -0.24548,0.56424 -0.58248,0.62561 l 0.65892,0.8767 h -0.29702 l -0.62245,-0.83357 h -0.61299 v 0.83357 h -0.24197 z m 0.9009,1.09411 c 0.32192,0 0.55196,-0.16552 0.55196,-0.44115 v -0.006 c 0,-0.26371 -0.20234,-0.42292 -0.54881,-0.42292 h -0.66208 V 233.47 Z m 1.64292,-1.09411 h 0.24232 v 2.14545 h -0.24232 z m 1.08184,1.07903 v -0.006 c 0,-0.58844 0.43239,-1.10954 1.07588,-1.10954 0.3619,0 0.58564,0.1052 0.80025,0.2851 l -0.1564,0.18375 a 0.91421729,0.91421729 0 0 0 -0.65296,-0.24547 c -0.47517,0 -0.81533,0.40152 -0.81533,0.87985 v 0.006 c 0,0.51199 0.32788,0.89213 0.84899,0.89213 a 1.0110044,1.0110044 0 0 0 0.6193,-0.21462 v -0.53303 h -0.65296 v -0.21777 h 0.88581 v 0.8553 a 1.299963,1.299963 0 0 1 -0.86127,0.32789 c -0.67435,0 -1.09131,-0.49025 -1.09131,-1.10324 z m 2.80473,-1.07903 h 0.24196 v 0.95314 h 1.23825 v -0.95314 h 0.24232 v 2.14545 h -0.24232 v -0.96542 h -1.23825 v 0.96542 h -0.24196 z m 3.20274,0.22373 h -0.7203 v -0.22373 h 1.68606 v 0.22373 h -0.72029 v 1.92172 h -0.24547 z m 1.22912,1.60014 h 0.28055 v 0.32158 h -0.28055 z"
         id="path881"
         style="fill:#000000;stroke-width:0.03506779" />
    </g>
  </g>
</svg>
